<?xml version="1.0" encoding="utf-8"?>
<!-- Generator: Adobe Illustrator 17.1.0, SVG Export Plug-In . SVG Version: 6.00 Build 0)  -->
<!DOCTYPE svg PUBLIC "-//W3C//DTD SVG 1.1//EN" "http://www.w3.org/Graphics/SVG/1.1/DTD/svg11.dtd">
<svg version="1.1" id="Your_Icon" xmlns="http://www.w3.org/2000/svg" xmlns:xlink="http://www.w3.org/1999/xlink" x="0px" y="0px"
	 viewBox="0 0 612 792" enable-background="new 0 0 612 792" xml:space="preserve">
<path opacity="0.78" fill="#681EE8" d="M502.7,511.5l107.4-249.1c0.6-0.6,0.6-1.8,0.6-2.4v-0.6c0-0.6,0-1.2,0-1.8V257
	c0-0.6,0-1.2-0.6-1.8v-0.6c0-0.6-0.6-1.2-1.3-1.8l0,0L421.2,3.6l0,0l0,0v3.6l0,0c-2.6-6-7.1-6.6-11.6-6l0,0l0,0l0,0l0,0l0,0l0,0l0,0
	l0,0V0L113.9,74.4c0,0,0,0-0.6,0s-1.3,0-1.9,0.6c-0.6,0-0.6,0.6-1.3,0.6c-0.6,0-0.6,0.6-0.6,0.6l-0.6,0.6c0,0-0.6,0.6-0.6,1.2
	l-0.6,0.6c0,0.6-0.6,0.6-0.6,1.2c0,0,0,0,0,0.6L0,329.6c0,0.6,0.6,0.6,0.6,1.2l0,0c0,1.2,0,2.4,0,3.6l0,0l0,0l0,0l0,0l0,0
	c0,0.6,0,1.2,0,1.2l0,0l0,0l0,0l0,0l0,0l0,0l0,0c0,1.2,0,2.4,0.6,3l0,0l0,0l0,0l0,0c0,0,0,0.6,0.6,0.6l187.6,224.5l0,0l0,0l0,0
	l0.6,0.6l0.6,0.6l0.6,0.6c0,0,0.6,0,0.6,0.6l0.6,0.6l0,0c0.6,0.6,1.3,0.6,1.9,0.6h0.6c0,0,0,0,0.6,0s1.3,0,2.6,0c0.6,0,1.3,0,1.9,0
	l294.4-49.8c0.6,0,0.6,0,1.3,0l0,0l0,0c0,0,0,0,0.6,0c0,0,0.6,0,0.6-0.6c0,0,0,0,0.6,0l0,0l0,0c0.6-0.6,1.9-1.2,2.6-1.8l0,0
	c0.6-0.6,1.3-1.8,1.9-2.4C502.7,512.1,502.7,512.1,502.7,511.5C502.7,512.1,502.7,512.1,502.7,511.5L502.7,511.5L502.7,511.5z
	 M483.3,490.5L297,382.4l209.6-151.3L483.3,490.5z M284,365.6l-71.2-241.3L496.2,212L284,365.6z M529.2,226.3l57.6,36l-77,178.3
	L529.2,226.3z M557.7,219.7l-29.8-18.6l-39.5-73.8L557.7,219.7z M498.2,190.9l-272.4-84.1l181.1-84.1L498.2,190.9z M196.7,97.9
	l-42.1-13.2l154-39L196.7,97.9z M122.9,96.7l56.3,17.4L48.5,270.2L122.9,96.7z M192.8,130.9l69.9,238.9L29.1,326.6L192.8,130.9z
	 M262.7,390.8l-67.9,147.1L36.2,348.8L262.7,390.8z M282.7,398l179.9,104.5l-247.8,42L282.7,398z"/>
</svg>
